<?xml version="1.0" encoding="UTF-8"?>
<!-- Generated by Pixelmator Pro 3.4.3 -->
<svg width="864" height="837" viewBox="0 0 864 837" xmlns="http://www.w3.org/2000/svg">
    <path id="Path" fill="#1b5ffe" stroke="none" d="M 844.422302 103.755615 C 739.859436 103.755615 592.139709 112.504395 516.650391 187.954041 C 483.966888 220.637512 467.645386 273.917664 471.881714 334.224915 C 472.432495 342.189911 477.729919 348.974976 485.341187 351.488708 C 492.912018 353.959198 501.230713 351.645264 506.409271 345.564911 C 548.391602 296.16571 600.574463 256.578308 661.624207 227.896729 C 666.802795 225.424866 672.923706 225.228027 678.49646 227.19043 C 683.399719 228.955994 687.244507 232.290466 689.245178 236.568359 C 693.403198 245.357666 692.069397 256.931458 678.258911 263.443848 C 677.475891 263.835632 676.768494 264.347046 675.985535 264.69989 C 675.710083 264.817627 675.396912 264.778992 675.161987 264.896729 C 524.734192 335.599182 450.775818 458.954102 417.187805 585.802795 C 392.704193 426.977997 340.993805 333.479736 292.145386 276.077698 C 256.795654 230.252502 222.032059 205.964661 201.944611 192.233521 C 198.216721 189.682556 186.957443 181.993225 182.287796 177.323547 C 174.63681 169.672607 174.63681 157.234497 182.287796 149.583557 C 189.938797 141.971375 202.415497 141.971375 210.928864 150.446167 C 213.009201 152.290771 216.343445 154.644958 220.580811 157.469971 L 224.073532 159.824097 C 252.479156 179.284058 305.370026 215.419739 352.293304 293.222717 C 356.491791 300.167114 364.613403 303.895813 372.500092 302.405396 C 380.505615 300.993286 386.780396 294.831909 388.351807 286.866882 C 398.592896 234.567322 394.002899 156.958557 347.352295 110.308472 C 271.863007 34.897461 124.143028 26.148621 19.620117 26.148621 C 8.78931 26.14679 0 34.936096 0 45.765015 C 0 150.326538 8.748864 298.047607 84.198418 373.536896 C 115.664497 405.002716 164.199692 419.129089 212.418716 419.129089 C 251.77121 419.129089 290.339081 409.27948 319.885193 392.212799 C 360.177307 475.704895 392.35321 600.434082 392.35321 791.234985 C 392.35321 802.064697 401.141693 810.85321 411.971405 810.85321 C 422.798401 810.85321 431.5896 802.064697 431.5896 791.234985 C 431.5896 684.790222 449.833496 557.039673 517.671021 451.888214 C 544.859985 478.453522 591.669922 495.285309 643.536865 496.854004 C 646.12616 496.932281 648.677734 496.970093 651.226501 496.970093 C 703.919678 496.970093 750.492004 480.454193 779.800476 451.105194 C 855.287109 375.615936 863.997314 227.894836 863.997314 123.33136 C 864.040466 112.504395 855.289795 103.755615 844.422302 103.755615 Z"/>
</svg>
