<?xml version="1.0" encoding="UTF-8"?>
<!-- Generated by Pixelmator Pro 3.4.3 -->
<svg width="2501" height="1120" viewBox="0 0 2501 1120" xmlns="http://www.w3.org/2000/svg">
    <path id="Path" fill="#1b5ffe" stroke="#0057ff" d="M 1133.127319 1041.825562 C 1140.334473 1057.861328 1138.532593 1074.147705 1127.721924 1090.68457 C 1116.911255 1107.221558 1102.239624 1115.48999 1083.707031 1115.48999 L 55.147266 1115.48999 C 45.880962 1115.48999 37.129456 1113.234985 28.892738 1108.724854 C 20.656025 1104.214844 14.478489 1098.451904 10.360131 1091.436279 C -0.965351 1075.400513 -2.509735 1058.863647 5.726979 1041.825562 L 53.602882 932.080566 C 57.721241 922.058228 64.413574 914.040344 73.679878 908.026855 C 82.946182 902.013428 92.72728 899.006653 103.02317 899.006653 L 822.706116 899.006653 L 569.427124 309.691284 L 362.479675 790.765137 C 358.361328 800.787476 351.926392 808.55481 343.174866 814.067139 C 334.42337 819.579468 324.384888 822.335571 313.059387 822.335571 L 183.331131 822.335571 C 163.768936 822.335571 148.325104 814.317627 136.999619 798.28186 C 132.881256 791.266235 130.307281 783.248291 129.277695 774.22821 C 128.248108 765.208069 129.277695 756.689087 132.36647 748.671143 L 445.876404 33.073853 C 449.994781 23.051514 456.429718 15.033569 465.181213 9.020142 C 473.932739 3.006714 483.971222 0 495.296692 0 L 643.557556 0 C 654.883057 0 664.92157 3.006714 673.673035 9.020142 C 682.424561 15.033569 688.859497 23.051514 692.977844 33.073853 Z M 1854.972412 12.026855 C 1867.327393 22.049194 1873.505005 35.579468 1873.505005 52.617432 L 1873.505005 165.369141 C 1873.505005 178.398193 1869.644043 189.673401 1861.922119 199.194641 C 1854.200195 208.715881 1843.646973 214.979858 1830.262207 217.986572 C 1764.36853 231.015686 1708.255859 261.583923 1661.924438 309.691284 C 1599.119507 373.834473 1567.717041 457.270691 1567.717041 560 C 1567.717041 662.72937 1599.119507 746.666687 1661.924438 811.812134 C 1708.255859 858.917236 1764.36853 888.984375 1830.262207 902.013428 C 1843.646973 905.020142 1854.200195 911.284119 1861.922119 920.80542 C 1869.644043 930.32666 1873.505005 941.601868 1873.505005 954.630981 L 1873.505005 1067.38269 C 1873.505005 1083.418457 1867.327393 1096.948608 1854.972412 1107.973145 C 1843.646973 1115.991089 1831.806641 1120 1819.451538 1120 L 1810.185303 1120 C 1690.75293 1100.95752 1588.308716 1048.340088 1502.852905 962.147583 C 1395.775635 854.908264 1342.236938 721.360229 1342.236938 561.503418 C 1342.236938 401.646545 1395.775635 267.096191 1502.852905 157.852356 C 1586.249512 73.664429 1688.693604 21.548096 1810.185303 1.503296 C 1826.658691 -1.503296 1841.587646 2.004517 1854.972412 12.026855 Z M 2339.908936 157.852356 C 2446.986084 267.096191 2500.524902 401.646545 2500.524902 561.503418 C 2500.524902 721.360229 2446.986084 854.908264 2339.908936 962.147583 C 2254.452881 1048.340088 2152.008789 1100.95752 2032.576538 1120 L 2023.310303 1120 C 2010.9552 1120 1999.114868 1115.991089 1987.789307 1107.973145 C 1975.434326 1096.948608 1969.256714 1083.418457 1969.256714 1067.38269 L 1969.256714 954.630981 C 1969.256714 941.601868 1973.117676 930.32666 1980.8396 920.80542 C 1988.561646 911.284119 1999.114868 905.020142 2012.499512 902.013428 C 2078.393311 888.984375 2134.505859 858.917236 2180.837402 811.812134 C 2243.642334 746.666687 2275.044922 662.72937 2275.044922 560 C 2275.044922 457.270691 2243.642334 373.834473 2180.837402 309.691284 C 2134.505859 261.583923 2078.393311 231.015686 2012.499512 217.986572 C 1999.114868 214.979858 1988.561646 208.715881 1980.8396 199.194641 C 1973.117676 189.673401 1969.256714 178.398193 1969.256714 165.369141 L 1969.256714 52.617432 C 1969.256714 35.579468 1975.69165 22.049194 1988.561523 12.026855 C 2001.431396 2.004517 2016.103027 -1.503296 2032.576538 1.503296 C 2154.068115 21.548096 2256.512207 73.664429 2339.908936 157.852356 Z"/>
</svg>
